/* XPM */
static char *result[] = {
/* columns rows colors chars-per-pixel */
"63 63 207 2 ",
"   c #56505B",
".  c #57505B",
"X  c #57515B",
"o  c #56505C",
"O  c #56515C",
"+  c #57515C",
"@  c #57525D",
"#  c #58515B",
"$  c #59515B",
"%  c #59525B",
"&  c #5A525B",
"*  c #5A525C",
"=  c #5B525C",
"-  c #5B535C",
";  c #58535E",
":  c #5D515C",
">  c #5C535C",
",  c #5E525C",
"<  c #59545E",
"1  c #58545F",
"2  c #5E545C",
"3  c #5F545C",
"4  c #5E555D",
"5  c #5E575F",
"6  c #60555C",
"7  c #61555C",
"8  c #61555D",
"9  c #62565D",
"0  c #63565D",
"q  c #61565E",
"w  c #64575D",
"e  c #65575D",
"r  c #6A565D",
"t  c #6D565D",
"y  c #61585F",
"u  c #66585D",
"i  c #68595E",
"p  c #6B5A5E",
"a  c #6C5B5E",
"s  c #6F5C5E",
"d  c #705D5F",
"f  c #715D5F",
"g  c #745F5F",
"h  c #755F5F",
"j  c #7F5C5F",
"k  c #585560",
"l  c #595560",
"z  c #595661",
"x  c #5B5761",
"c  c #5A5863",
"v  c #5D5963",
"b  c #5A5964",
"n  c #5B5964",
"m  c #5B5A65",
"M  c #5B5B66",
"N  c #5D5B65",
"B  c #5C5B66",
"V  c #5D5C66",
"C  c #5C5C67",
"Z  c #5C5D68",
"A  c #5D5E69",
"S  c #5D5F6A",
"D  c #695B61",
"F  c #6C5E61",
"G  c #6C5D62",
"H  c #615F68",
"J  c #5E606B",
"K  c #5E616C",
"L  c #5E626D",
"P  c #5F636E",
"I  c #62606A",
"U  c #60646F",
"Y  c #62656F",
"T  c #6F676E",
"R  c #776365",
"E  c #786060",
"W  c #796160",
"Q  c #7B6260",
"!  c #7D6360",
"~  c #7E6360",
"^  c #7F6461",
"/  c #7A6566",
"(  c #606671",
")  c #626671",
"_  c #626873",
"`  c #626974",
"'  c #626A75",
"]  c #636A75",
"[  c #636B76",
"{  c #656A74",
"}  c #646C76",
"|  c #646D77",
" . c #686972",
".. c #696B73",
"X. c #6B6D76",
"o. c #656D78",
"O. c #666E79",
"+. c #676F79",
"@. c #6D6F78",
"#. c #68707A",
"$. c #69717B",
"%. c #6C7079",
"&. c #6E7179",
"*. c #69727C",
"=. c #6A737D",
"-. c #6B737D",
";. c #6D747D",
":. c #6F767F",
">. c #71767E",
",. c #72767E",
"<. c #815C5F",
"1. c #806461",
"2. c #806561",
"3. c #816561",
"4. c #836661",
"5. c #846661",
"6. c #856761",
"7. c #866761",
"8. c #876862",
"9. c #886862",
"0. c #896962",
"q. c #8A6962",
"w. c #8B6A62",
"e. c #8F6B63",
"r. c #8F6C63",
"t. c #826A68",
"y. c #866D6A",
"u. c #8B6F6C",
"i. c #906C63",
"p. c #916C63",
"a. c #926D63",
"s. c #936D63",
"d. c #936E63",
"f. c #946E63",
"g. c #956E64",
"h. c #966F64",
"j. c #8C706B",
"k. c #8E726C",
"l. c #977064",
"z. c #987064",
"x. c #997165",
"c. c #997265",
"v. c #9A7265",
"b. c #9A7266",
"n. c #9A7366",
"m. c #967368",
"M. c #90736D",
"N. c #91736D",
"B. c #9C7568",
"V. c #9E7769",
"C. c #93786C",
"Z. c #94796D",
"A. c #967B6F",
"S. c #9E7869",
"D. c #9F796A",
"F. c #977D70",
"G. c #947E72",
"H. c #A07B6C",
"J. c #A27D6D",
"K. c #A37F6E",
"L. c #988177",
"P. c #9C8374",
"I. c #A4806F",
"U. c #A58170",
"Y. c #A58270",
"T. c #A88572",
"R. c #AC8A76",
"E. c #B09079",
"W. c #B0907A",
"Q. c #B2927B",
"!. c #B4957D",
"~. c #6F7780",
"^. c #707982",
"/. c #717A82",
"(. c #717A83",
"). c #727B83",
"_. c #747A81",
"`. c #757A81",
"'. c #757A82",
"]. c #757B83",
"[. c #767B83",
"{. c #727B84",
"}. c #777D84",
"|. c #747D86",
" X c #757E86",
".X c #767F87",
"XX c #787C82",
"oX c #787C83",
"OX c #797E85",
"+X c #7A7E84",
"@X c #7B7E84",
"#X c #7A7F85",
"$X c #798087",
"%X c #778088",
"&X c #788289",
"*X c #79838A",
"=X c #7A848B",
"-X c #7B848C",
";X c #7C858C",
":X c #7D878E",
">X c #7F898F",
",X c #7F8990",
"<X c #81868C",
"1X c #82878D",
"2X c #808A90",
"3X c #818A91",
"4X c #828C92",
/* pixels */
"                                      o                                                                                       ",
"<.<.<.<.<.<.<.<.<.<.<.<.<.<.<.<.j r   I @.@.@.@.@.@.@.@.@.@.@.@.@X&.@X@X@XXX+X@.@.@.@.@.@.@.  : t <.<.<.<.<.<.<.<.<.<.<.<.<.<.",
"N.N.N.N.N.N.N.N.N.N.N.N.N.N.N.M.u.; 3X/.' ' ' ' ' ' ' ' ' ' ' ' ' ' ' ' ' ' ' ' ' ' ' ' ' [ 3X_.5 k.N.N.N.N.N.N.N.N.N.N.N.N.N.",
"N.N.N.N.N.N.N.N.N.N.N.N.N.N.N.t.; ^.C z                                                   c C Y ;.  N.N.N.N.N.N.N.N.N.N.N.N.N.",
"L.L.L.L.L.L.L.L.N.N.N.N.N.N.R H ;X  > z.p z.z.z.h # z.h.- *                                     x >X  N.N.N.N.N.N.N.N.N.N.L.N.",
"L.L.L.L.L.L.L.L.N.N.N.N.N./ T S N ^ z.z.p z.z.z.z.d z.l.f.3.a                                   + m %.F N.N.N.N.N.N.N.N.N.L.N.",
"N.N.N.N.N.L.N.N.N.N.N.N.N.D X.K w B.e.z.p W.r.h.z.d h.r.z.3.g                                       .X< j.N.N.N.N.N.N.N.N.N.N.",
"N.N.N.L.L.L.L.L.L.N.L.N.N.  |.  n.!.  z.p W.$ 0.z.d q.# z.3.                                        U ..G N.N.N.N.N.N.N.N.N.N.",
"N.N.N.N.N.N.N.N.N.N.N.N.q ,.S   n.!.v.z.p W.z.z.z.d z.z.z.3.W 3                                       |.  N.N.N.N.N.N.N.N.N.N.",
"N.N.N.N.N.N.N.N.N.N.N.N.q ,.S   n.!.H.z.p W.z.z.z.d z.z.z.3.W 7.                                      |.  N.N.N.N.N.N.N.N.N.N.",
"N.N.N.N.N.N.N.N.N.N.N.N.4 >.B 9 n.!.H.z.p W.z.z.z.d z.z.z.3.z.7.                                      :.v y.N.N.N.N.N.N.N.N.N.",
"N.N.N.N.N.N.N.N.N.N.N.N.  ~.  F.n.!.H.z.p W.z.z.z.d z.z.z.3.z.7.                                      S ,.q N.N.N.N.N.N.N.N.N.",
"N.N.N.N.N.N.N.N.N.N.N.N.  ~.  P.n.!.H.z.p W.z.z.z.d z.z.z.3.z.7.                                      S ,.q N.N.N.N.N.N.N.N.N.",
"N.N.N.N.N.N.N.N.N.N.N.N.  ~.  P.n.!.H.z.p W.z.z.z.d z.z.z.3.z.7.                                      S ,.q N.N.N.N.N.N.N.N.N.",
"<.<.<.<.<.<.<.<.<.<.<.<.  ~.  P.n.!.V.z.p T.z.z.z.d z.z.z.3.5.7.                                      S ,., <.<.<.<.<.<.<.<.<.",
"                          ~.  P.n.!.E.z.p E.x.z.z.d z.z.z.3.~ 7.                                      S ,.                    ",
"                          ~.  Z.z.z.z.w.0 z.z.z.0.u z.z.4.f W                                         S ,.                    ",
"    <.<.<.<.<.<.<.<.<.<.  ~.  = > > > $   > > > $   > > .   %                                         S ,., <.<.<.<.<.<.<.<.  ",
"  <.<.<.N.N.N.N.N.N.N.N.  ~.  b C C C C C C C C C C C C C C z                                         S ,.q N.N.N.N.N.N.<.<.<.",
"  <.<.<.<.<.<.N.<.N.N.N.  ~.  [.o.3X3X[ [ [ [ [ [ [ [ [ [ [ A P                                       S ,.q N.N.N.N.<.<.<.<.<.",
"  <.<.<.<.N.N.N.N.N.N.N.  ~.  }.o.4X%X).[ [ [ [ [ [ [ [ [ [ [ P                                       S ,.  N.                ",
"  <.<.<.<.<.<.N.N.N.N.N.  ~.  }.o.4X4X[ [ [ [ [ [ [ [ [ [ [ [ P                                       S ,., N.<.<.<.<.<.<.<.<.",
"  <.<.<.    N.N.N.N.N.N.  ~.  }.o.x `.{.[ [ [ [ [ [ [ [ [ n Z P                                       S ,.q N.N.N.N.    <.<.<.",
"  <.<.<.    N.N.N.N.N.N.  ~.  }.o.#.*X{.[ [ [ [ [ [ [ [ [ [ ] P                                       S ,.q N.N.N.<.    <.<.<.",
"  <.<.<.<.<.<.N.N.N.N.N.  ~.  }.o.4X.X*.[ [ [ [ [ [ [ [ [ [ ( P                                       S ,.q N.N.N.N.<.<.<.<.<.",
"  <.<.<.N.N.N.N.N.N.N.N.  &X  '.o.>X>X(.[ [ [ [ [ [ [ [ [ ` A L                                       S ,.    N.              ",
"  <.<.<.<.<.<.<.<.<.N.<.  {.  c m m m m m m m m m m m m m 1 l                                         S ,., <.N.<.<.<.<.<.<.  ",
"  <.<.<.<.<.<.<.N.N.N.N.  &X                                                                          S ,.q N.N.N.N.N.<.<.<.<.",
"  <.<.<.<.<.<.<.<.<.<.<.  &X                                                                          S ,., N.<.<.<.<.<.<.<.<.",
"  <.<.<.<.<.<.<.<.<.N.<.  &X  8.z.z.z.! * z.z.z.W = z.z.p 2 W                                         S ,.q N.N.N.<.<.<.<.<.<.",
"    <.<.<.<.<.<.<.<.<.<.  &X  A.c.R.S.J.p z.z.z.z.d z.z.z.3.W E                                       S ,., <.<.<.<.<.<.<.<.  ",
"                          (.  P.n.!.D.z.p W.z.z.z.d z.z.z.3.W 8                                       S ,.                    ",
"                          (.  P.n.!.U.z.p W.z.z.z.d z.z.z.3.p.7.                                      S ,.                    ",
"<.<.<.<.<.<.<.<.<.<.<.<.  ~.  P.n.!.H.z.p W.z.z.z.d z.z.z.3.z.7.                                      S ,., <.<.<.<.<.<.<.<.<.",
"N.N.N.N.N.N.N.N.N.N.N.N.  ~.  P.n.!.H.z.p W.z.z.z.d z.z.z.3.z.7.                                      S ,.q N.N.N.N.N.N.N.N.N.",
"N.N.N.N.N.N.N.N.N.N.N.N.  ~.  P.n.!.H.z.p W.z.z.z.d z.z.z.3.z.7.                                      S ,.q N.N.N.N.N.N.N.N.N.",
"L.L.L.L.L.L.L.L.N.N.N.N.  ~.  P.n.!.H.z.p W.z.z.z.d z.z.z.3.z.7.                                      S ,.q N.N.N.N.N.N.N.L.N.",
"L.L.L.L.L.L.L.L.N.N.N.N.  ~.  P.n.!.H.z.p W.z.z.z.d z.z.z.3.z.7.                                      S oXq N.N.N.N.N.N.N.L.N.",
"N.N.N.N.N.L.N.N.N.N.N.N.  ~.  P.n.!.H.z.p W.z.z.z.d z.z.z.3.z.7.                                      S 1Xq N.N.N.N.N.N.N.N.N.",
"N.N.N.L.L.L.L.L.L.N.L.N.  ~.  P.n.!.H.z.p W.z.z.z.d z.z.z.3.z.7.                                      S 1Xq N.N.N.N.N.N.N.N.N.",
"N.N.N.N.N.N.N.N.N.N.N.N.  ~.  P.n.!.H.z.p W.z.z.z.d z.z.z.3.z.7.                                      S 1Xq N.N.N.N.N.N.N.N.N.",
"N.N.N.N.N.N.N.N.N.N.N.N.  ~.  P.n.!.Y.z.p Q.x.z.z.d z.z.z.3.0.7.                                      S #Xq N.N.N.N.N.N.N.N.N.",
"N.N.N.N.N.N.N.N.N.N.N.N.  ~.  P.z.z.z.z.p z.z.z.z.d z.z.z.3.z.7.                                      S 1Xq N.N.N.N.N.N.N.N.N.",
"N.N.N.N.N.N.N.N.N.N.N.N.  ~.  P.z.I.B.z.p K.z.z.z.d z.z.z.3.W 7.                                      S OXq N.N.N.N.N.N.N.N.N.",
"N.N.N.N.N.N.N.N.N.N.N.N.  ~.  6.g.g.g.h   g.g.g.d   g.g.6   E                                         S <Xq N.N.N.N.N.N.N.N.N.",
"N.N.N.N.N.N.N.N.N.N.N.N.  ~.                                                                          S ,.q N.N.N.N.N.N.N.N.N.",
"<.<.<.<.<.<.<.<.<.<.<.<.  ~.  ) [ O.O.| o.[ [ [ [ [ [ [ [ M A @                                       S ,., <.<.<.<.<.<.<.<.<.",
"                          ~.  }.o.4X X$.-.[ [ [ [ [ [ [ [ J A P                                       S ,.                    ",
"                          ~.  }.o.4X4X2X[ [ [ [ [ [ [ [ [ [ [ P                                       S ,.                    ",
"    <.<.<.<.<.<.<.<.<.<.  ~.  }.o. .$X{.[ [ [ [ [ [ [ [ [ S K P                                       S ,., <.<.<.<.<.<.<.<.  ",
"  <.<.<.N.N.N.N.N.N.N.N.  ~.  }.o.V ].{.[ [ [ [ [ [ [ [ [ Z S P                                       S ,.q N.N.N.N.N.<.<.<.<.",
"  <.<.<.<.N.<.N.N.N.N.N.  ~.  }.o.=X,X:X[ [ [ [ [ [ [ [ [ [ [ P                                       S ,.q N.<.N.<.<.<.<.<.<.",
"  <.<.N.N.N.N.N.N.N.N.N.  ~.  }.o.4X-X+.[ [ [ [ [ [ [ [ [ [ _ P                                       S ,.q N.N.N.N.N.N.<.<.<.",
"  <.<.<.<.<.N.N.N.N.N.N.  ~.  { } =.=.+.[ [ [ [ [ [ [ [ [ [ A k                                       S ,.  N.                ",
"  <.<.<.N.N.N.N.N.N.N.N.  ~.                                                                          S ,., N.<.<.<.<.<.<.<.  ",
"  <.<.<.<.<.<.N.N.N.N.N.  ~.                                                                          S ,.q N.N.N.N.N.<.N.<.<.",
"  <.<.<.    N.N.N.N.N.N.  ~.  u a a a 7   a a a 3   a a &   9                                         S ,.q N.N.N.N.    <.<.<.",
"  <.<.<.    N.N.N.N.N.N.  ~.  8.z.z.z.d.i z.z.z.s.a z.z.i.Q W ^                                       S ,.q N.N.<.<.    <.<.<.",
"  <.<.<.<.<.<.<.N.N.N.N.  ~.  P.n.G.m.z.p W.1.a.z.d s.^ z.3.^ 7.                                      S ,.q N.N.N.N.N.<.<.<.<.",
"  <.<.<.<.N.N.N.N.N.N.N.  ~.  P.n.y 5.z.p W.$ 0.z.d q.# z.3.  7.                                      S ,.    N.              ",
"  <.<.<.<.<.<.<.<.N.<.N.  [   C.x.b.z.q.9 z.z.z.9.e z.z.2.s W f                                       S K , <.N.<.<.<.<.<.<.<.",
"  <.<.<.<.N.<.N.N.N.N.N.  +   # % % % #   % % % X   % % .   #                                         O O q N.N.N.N.<.<.<.<.<.",
"    <.<.<.<.<.<.<.<.<.<.                                                                                  , <.<.<.<.<.<.<.<.  "
};
