/* XPM */
static char *result[] = {
/* columns rows colors chars-per-pixel */
"63 63 77 1 ",
"  c #56505B",
". c #5A535C",
"X c #63555C",
"o c #6A565D",
"O c #64585E",
"+ c #6C5B5E",
"@ c #735E5F",
"# c #7D5B5E",
"$ c #595661",
"% c #5C5B66",
"& c #5D5F6A",
"* c #615C64",
"= c #685B60",
"- c #5F626D",
"; c #6F6264",
": c #63646E",
"> c #756265",
", c #7D6361",
"< c #7F6E6A",
"1 c #666771",
"2 c #636A75",
"3 c #6B6C74",
"4 c #666E79",
"5 c #6D6F78",
"6 c #706F77",
"7 c #67707A",
"8 c #6B737D",
"9 c #71737B",
"0 c #815C5F",
"q c #836661",
"w c #876862",
"e c #8A6B64",
"r c #846D6A",
"t c #956E64",
"y c #83716B",
"u c #8D726B",
"i c #987064",
"p c #91736D",
"a c #9C7668",
"s c #9F796A",
"d c #917C70",
"f c #997E70",
"g c #A17C6C",
"h c #988177",
"j c #A5816F",
"k c #A28574",
"l c #A98673",
"z c #AC8A76",
"x c #A78B78",
"c c #AA8E79",
"v c #B08F79",
"b c #AD907A",
"n c #B4957D",
"m c #B6987F",
"M c #6F7881",
"N c #757E86",
"B c #7A7E84",
"V c #778088",
"C c #7B848B",
"Z c #7F898F",
"A c #7F8990",
"S c #828C92",
"D c #869096",
"F c #8A959A",
"G c #8E999D",
"H c #909B9F",
"J c #B79980",
"K c #BA9F84",
"L c #BDA487",
"P c #BEA689",
"I c #BFA88A",
"U c #929DA1",
"Y c #95A1A4",
"T c #9BA7A9",
"R c #9CA8AA",
"E c #C2AC8D",
"W c #C5B191",
/* pixels */
"                                                        $      ",
"00000000000000o  55555555555559BBBBB995555555$ o#00000000000000",
"pppppppppppppp$CS2222222222222222222222222222VS rpppppppppppppp",
"ppppppppppppp M&%                   ..       %%N$>ppppppppppppp",
"hhhhhhhhpppu Z ..iiiq iiiiitti. qiiiiiiiq iii+. B3=pppppppppphp",
"hhhhhhhhppr=1%dllllzu.llllllllq lzlzlllge lllll,*&5=pppppppppfp",
"ppppuhpppp>&2.nnxnngq.nnnnlnnke nnmccvvaq nnncki+%N ppppppppppp",
"ppphhhhhhp A$ynn nnnq.nnnn nnnu nnn=rnnne nnn><ni 8$,pppppppppp",
"ppppppppp=12 nnngnnnq.nnnnannnq nnngknnnw nnnglnn@$S pppppppppp",
"ppppppppp=12 nnnnnnnq.nnnnnnnnq nnnnnnnnw nnnnnnn@$A pppppppppp",
"ppppppppp=3-=nnnnnnnq nnnIWEEnq nnnnnnnnw nnnnnnn,$N$eppppppppp",
"ppppppppp N hnnnnnnnq nKJEEnnnq nnnnnnnnw nnnnnnni 21=ppppppppp",
"ppppppppp N kJnnnnnnq.nKnEEnnnq nnnnnnnnw nnnnnnni 2:+ppppppppp",
"ppppppppp N hJnnnnnnq.nnnnnnnnq nJnnnnnnw nnnnnnni 21=ppppppppp",
"0#000000# N kJnnnnnnq nnnnnnnnq nnnnnnnnt nnnnnnki 21X000000000",
"$         N kJnnnnnaq nnnnnngjw nnnnnngae nnnJgaai 11          ",
"          V yllllllg@ kllllllzr kllzllzi@ gzllllie 21          ",
"  000000# V  .......  ..X.....  ........  ....$... 21X00000000 ",
" 000ppppp V  --%%%%%%%%%%%%%%%%%%%&&%%%%%%%%%%%$*$ 21=pppppp000",
" 000000p0 V -MADSSSSSSSSSSSSSSSSZSSSSSSSSSSSSSSSS2 21=pppp00000",
" 0000pppp V :VAASSSSSSYGRRRRTFSSDSSSSSSSSSSSSSSNN2 21 p        ",
" 000000pp V :AAASSSSSSSSDDSSSSSSSSSSSSSSSSSSSSSSS2 11Xp00000000",
" 000  ppu V :DA%%SSSSSSFGGGGGSSSSSSSSSSSSSSSSM SS2 21=pppp  000",
" 000  ppp V -SAASSSSSSSSSRGYSSSSSSSSSSSSSSSSSSSS42 21=ppp0  000",
" 000000pp V :87VCCSSSSSSSSSSSSSSSSSSSSSSSSSSSSN222 21=pppp00000",
" 000ppppp D -2222222222224222224224222222222222222 21  p       ",
" 00000000 C  %%%%%%%%%%%%%%%%%%%%$%$%%%%%%%%%%$%%$ 21X0p000000 ",
" 0000000p D                                        21=ppppp0000",
" 00000000 D                                        21Xp00000000",
" 00000000 D XiiiiiiiX eiiiiiti. wiiiiiiiX qiiiiii# 21=ppp000000",
"  0000000 D sczzzzzzp zzzzzzzzq zzzzzzzge zzzzzzai 11X00000000 ",
"          C.hnnnnnnjq nnnnnngle nnnnnnngq nnnnnagi 21          ",
"          C hnnnnnnnq.nnnnnnnne.bnnnnnnnw nnnnnsgi 2:          ",
"00000#000 N xnnnnnnn,.nnnnnnnnq.nnnnnnnnw nnnnnnni :3X000000000",
"ppppppppp V hnEEEInnq.nnnnnnnnq nnnIEmnnw nnnnnnni 21+upppppppp",
"ppppppppp V knPLELnnq.nnnnnnnnq nnnIWmmnw nnnnnnnt 21+ppppppppp",
"hhhhhhhhu V knnIWWnnq.nnnnnnnnq nLnWWnnnw nnnnnnni 22=ppppppphp",
"hhhhhhhhp V xnnJnnnn,.nnnnnnnnq nnnnnnnnw.nnnnnnni 23+ppppppphp",
"ppppuhppp V hnnnnnnnq.nnnnnnnnq.nnnnnnnnw nnnnnnni 29+ppppppppp",
"ppphhhhhh V knnnnnnnq.nnnnnnnnq.nnnnnnnnw nnnnnnni 29Oppppppppp",
"ppppppppp V hnnnnnnnq.nnnnnnnmq nnnnnnnnw nnnnnnni 26+ppppppppp",
"ppppppppp N kmnnnnnnq.nnnnnnnzq nnnnnnnnw nnnnnnli 23Oppppppppp",
"ppppppppp V knnnnnnmd.nnnnnnnnq nnnnnnnnw nnnnnnnj 29=ppppppppp",
"ppppppppp N xnnnnvnaq.nnnnnnnsq nnnnnnlzd nnnnnjit 23=ppppppppp",
"ppppppppu V  ttttttt  qttttttt  qttttttt  ,tttttt@ 29Oppppppppp",
"ppppppppp N                                        23+ppppppppp",
"000000000 V $227277727777727747744444427447727272% 2:X000000000",
"          V -7AASSSSSSSSSSSSSSSSGFUUUUYUSSSSSSSSN2 23          ",
"          N -SSSSSSSSSSSSSDDASSSHFTTYTTYSSSSSSSSSB 21          ",
"  0000000 N 2SS35SSSSSSSADZASSSSSSUHFYYSSSSSSV:SSM :1X#q000000 ",
" 000ppppp N -CS:2SSSSSSSZAZDSSSASSSSDDSSSSSSS8-SSN 21+uuppp0000",
" 0000p0pp V 2288NSSSSSSSDZDASSSDSSSSFFSSSSSSAZ8887 21+p0p000000",
" 00pppppp N 222CCCCCCCCCCCCCCCCCCCCCCCCCCCCZCCCVV2 21+uppppp000",
" 00000ppp V $222242222222222222224222222222222222% 21.p        ",
" 000ppppp N           .     ..                     22Xp0000000 ",
" 000000pp N                  .                     21+ppppp0p00",
" 000  ppp V  +++++++  O+++++++  O+++++++  X++++++X 21+pppp  000",
" 000  ppp N qiiiiiii,.ttiiiiit, iiiiiitiq tiitiiit 22Opp00  000",
" 0000000p V knnndnnnq.nnnndnnsq nnnhlmnnq mvnkhjii 21+ppppp0000",
" 0000pppp N hnnn zna,.nnnn nmvq nnn=yviiw mmm;yvat 21  p       ",
" 00000000 2 ylllllla+.jlljljll@ hlllllig@ jjlllliw 2%X0p0000000",
" 0000p0pp     ... .    ....  .   . . ...   . .....   +pppp00000",
"  0000000               .                            X00000000 "
};
