/* XPM */
static char *cddda242fafc454cd228c8d6ff2c4be9gtohaAr5uT0Je6mR[] = {
/* columns rows colors chars-per-pixel */
"64 64 4 1 ",
"  c #56505B",
". c #815C5F",
"X c #91736D",
"o c #988177",
/* pixels */
"                                                                ",
"................................    ............................",
"XXXXXXXXXXXXXXXXXXXXXXXXXXXXX....  ..XXXXXXXXXXXXXXXXXXXXXXXXXXX",
"XXXXXXXXXXXXXXXXXXXXXXXX.X.......  .......X.XXXXXXXXXXXXXXXXXXXX",
"ooooooooXXXXXXXXXXXXXXXXXXXXXX...  ....XXXXXXXXXXXXXXXXXXXXXXoXo",
"ooooooooXXXXXXXXXXXXXXXXXXX......  ......XXXXXXXXXXXXXXXXXXXXoXo",
"XXXXXoXXXXXXXXXXXXXXXXXXXXXXXXX..         X  X XXXXXXXXXXXXXXXXX",
"XXXooooooXoXXXXXXXXXXXXXXXXX.....   ......X..X.XXXXXXXXXXXXXXXXX",
"XXXXXXXXXXXXXXXXXXXXXXXXXXXX  ...  ...  XXXXXXXXXXXXXXXXXXXXXXXX",
"XXXXXXXXXXXXXXXXXXXXXXXXXX..  ...  ...  XXXXXXXXXXXXXXXXXXXXXXXX",
"XXXXXXXXXXXXXXXXXXXXXXXXXXXXXX..   ......X.XXXXXXXXXXXXXXXXXXXXX",
"XXXXXXXXXXXXXXXXXXXX X  X          ....XXXXXXXXXXXXXXXXXXXXXXXXX",
"XXXXXXXXXXXXXXXXXXXX.X..X........  .........XXXXXXXXXXXXXXXXXXXX",
"XXXXXXXXXXXXXXXXXXXXXXXXXXXX.....  ......X.XXXXXXXXXXXXXXXXXXXXX",
"................................    ............................",
"                                                                ",
"                                                                ",
"  ............................................................  ",
" ...XXXXXXXXXXXXXXXXXXXXXXXXXXXXXXXXXXXXXXXXXXXXXXXXXXXXXXXX... ",
" ......X.XXXXXXXXXXoooooooXXXXXXXXXXXXXXXXXXXXXXXXXXXXXXXX..... ",
" ....XXXXXXXXXXXXXXXXXooXXXXXXXXXXXXXXXXXXXXXXXXXXXXX X         ",
" ......XXXXXXXXXXXXXXoooooXoXXXXXXXXXXXXXXXXXXXXXXXXX.X........ ",
" ...  XXXXXXXXXXXXXXXoooooXoXXXXXXXXXXXXXXXXXXXXXXXXXXXXXX  ... ",
" ...  XXXXXXXXXXXXXXXXXXXXXXXXXXXXXXXXXXXXXXXXXXXXXXXXXXX.  ... ",
" ......XXXXXXXXXXXXXXXXXXXXXXXXXXXXXXXXXXXXXXXXXXXXXXXXXXX..... ",
" ...XXXXXXXXXXXXXXXXXXXXXXXXXXXXXXXXXXXXXXXX X  X      X        ",
" .........X.XXXXXXXXXXXXXXXXXXXXXXXXXXXXXXXX.X..X......X......  ",
" .......XXXXXXXXXXXXXXXXXXXXXXXXXXXXXXXXXXXXXXXXXXXXXXXXXXX.... ",
" .............XXXXXXXXXXXXXXXXXXXXXXXXXXXXXXXXXXXXXXX.X........ ",
" .........X.XXXXXXXXXXXXXXXXXXXXXXXXXXXXXXXXXXXXXXXXXXXXX...... ",
"  ............................................................  ",
"                                                                ",
"                                                                ",
"................................    ............................",
"XXXXXXXXXXXXXXXXXXXXXXXXXXXXXX...  ...XXXXXXXXXXXXXXXXXXXXXXXXXX",
"XXXXXXXXXXXXXXXXXXXXXXXXX.X......  ...XXXXXXXXXXXXXXXXXXXXXXXXXX",
"ooooooooXXXXXXXXXXXXXXXXXXXXXXX..  ......X.XXXXXXXXXXXXXXXXXXoXo",
"ooooooooXXXXXXXXXXXXXXXXXXXXXXX..  ....XXXXXXXXXXXXXXXXXXXXXXoXo",
"XXXXXoXXXXXXXXXXXXXXXXXXXXXXXX...         X  X XXXXXXXXXXXXXXXXX",
"XXXooooooXoXXXXXXXXXXXXXXXXXXXX..   ......X..X.XXXXXXXXXXXXXXXXX",
"XXXXXXXXXXXXXXXXXXXXXXXXXXXX  ...  ...  XXXXXXXXXXXXXXXXXXXXXXXX",
"XXXXXXXXXXXXXXXXXXXXXXXXXX..  ...  ...  XXXXXXXXXXXXXXXXXXXXXXXX",
"XXXXXXXXXXXXXXXXXXXXXXXXXXXXXX..   .......XXXXXXXXXXXXXXXXXXXXXX",
"XXXXXXXXXXXXXXXXXXXX X  X          ...X.XXXXXXXXXXXXXXXXXXXXXXXX",
"XXXXXXXXXXXXXXXXXXXX.X..X........  .........XXXXXXXXXXXXXXXXXXXX",
"XXXXXXXXXXXXXXXXXXXXXXXXXX.X.....  .......XXXXXXXXXXXXXXXXXXXXXX",
"................................    ............................",
"                                                                ",
"                                                                ",
"  ............................................................  ",
" ...XXXXXXXXXXXXXXXXXXXXXXXXXXXXXXXXXXXXXXXXXXXXXXXXXXXXXXX.... ",
" ....X.XXXXXXXXXXXXXXXXXXXXXXXXXXXXXXXXXXXXXXXXXXXXXXXX.X...... ",
" ..XXXXXXXXXXXXXXXXooooooXoXXXXXXXXXXXXXXXXXXXXXXXXXXXXXXXXX... ",
" .....XXXXXXXXXXXXXXXXXoXXXXXXXXXXXXXXXXXXXXXXXXXXXXX X         ",
" ...XXXXXXXXXXXXXXXoXoooooXXXXXXXXXXXXXXXXXXXXXXXXXXX.X.......  ",
" ......XXXXXXXXXXXXoXoooooXXXXXXXXXXXXXXXXXXXXXXXXXXXXXXXXX.X.. ",
" ...  XXXXXXXXXXXXXXXXXXXXXXXXXXXXXXXXXXXXXXXXXXXXXXXXXXXX  ... ",
" ...  XXXXXXXXXXXXXXXXXXXXXXXXXXXXXXXXXXXXXXXXXXXXXXXXXX..  ... ",
" .......XXXXXXXXXXXXXXXXXXXXXXXXXXXXXXXXXXXXXXXXXXXXXXXXXXX.... ",
" ....XXXXXXXXXXXXXXXXXXXXXXXXXXXXXXXXXXXXXXX X  X      X        ",
" ........X.XXXXXXXXXXXXXXXXXXXXXXXXXXXXXXXXX.X..X......X....... ",
" ....X.XXXXXXXXXXXXXXXXXXXXXXXXXXXXXXXXXXXXXXXXXXXXXXXXXXX..... ",
"  ............................................................  ",
"                                                                "
};
