/* XPM */
static char *result[] = {
/* columns rows colors chars-per-pixel */
"64 64 217 2 ",
"   c #33323D",
".  c #383641",
"X  c #3C3841",
"o  c #3E3841",
"O  c #3D3942",
"+  c #3D3B46",
"@  c #413E41",
"#  c #433D45",
"$  c #483D46",
"%  c #493E47",
"&  c #4A3F47",
"*  c #484141",
"=  c #4A4040",
"-  c #4B4644",
";  c #4A4744",
":  c #4E4A45",
">  c #47434E",
",  c #49434A",
"<  c #4C4349",
"1  c #4F424A",
"2  c #4E454B",
"3  c #4F464B",
"4  c #4E4A48",
"5  c #504642",
"6  c #544641",
"7  c #564B44",
"8  c #5E4D42",
"9  c #52434A",
"0  c #52474D",
"q  c #5A474E",
"w  c #534D48",
"e  c #53494C",
"r  c #5E4B4C",
"t  c #56514F",
"y  c #5B5449",
"u  c #5C564A",
"i  c #5B524E",
"p  c #5E534F",
"a  c #4C4752",
"s  c #4F4D52",
"d  c #504B56",
"f  c #514B56",
"g  c #514C57",
"h  c #584B50",
"j  c #5B4E52",
"k  c #5C4E51",
"l  c #514C58",
"z  c #504F59",
"x  c #544E59",
"c  c #554E59",
"v  c #554F5B",
"b  c #5F5152",
"n  c #5F5053",
"m  c #5E5850",
"M  c #56505B",
"N  c #5B555B",
"B  c #5E5B5B",
"V  c #644E4B",
"C  c #644D4D",
"Z  c #655345",
"A  c #6D5644",
"S  c #6F5648",
"D  c #6C5E4B",
"F  c #745A45",
"G  c #775C45",
"H  c #7D5F47",
"J  c #775B49",
"K  c #604A50",
"L  c #644D53",
"P  c #605650",
"I  c #675657",
"U  c #6A5055",
"Y  c #6B5055",
"T  c #655B51",
"R  c #675A53",
"E  c #655854",
"W  c #695758",
"Q  c #6A5759",
"!  c #6C5A5A",
"~  c #6F5D59",
"^  c #705358",
"/  c #715458",
"(  c #725458",
")  c #74555A",
"_  c #76565B",
"`  c #715D5C",
"'  c #705C5D",
"]  c #735E5D",
"[  c #725E5E",
"{  c #755F5F",
"}  c #79585C",
"|  c #7A585C",
" . c #7B595D",
".. c #7C595D",
"X. c #68614E",
"o. c #78624A",
"O. c #796B4F",
"+. c #7C6A4E",
"@. c #6D6055",
"#. c #716950",
"$. c #756857",
"%. c #776C56",
"&. c #786F53",
"*. c #78635F",
"=. c #797053",
"-. c #636066",
";. c #6C6862",
":. c #6D666B",
">. c #766363",
",. c #746364",
"<. c #786260",
"1. c #786261",
"2. c #7A6361",
"3. c #7B6560",
"4. c #70696F",
"5. c #815C5F",
"6. c #886E4D",
"7. c #807253",
"8. c #807655",
"9. c #827856",
"0. c #837956",
"q. c #847A57",
"w. c #81745A",
"e. c #8A7C5A",
"r. c #8A7D5B",
"t. c #9D7D51",
"y. c #A3774B",
"u. c #A5794B",
"i. c #A3794D",
"p. c #AB7F4E",
"a. c #816864",
"s. c #816865",
"d. c #826965",
"f. c #836966",
"g. c #846A67",
"h. c #856B67",
"j. c #876C67",
"k. c #876C68",
"l. c #8D706B",
"z. c #8E716C",
"x. c #8F716C",
"c. c #8F726C",
"v. c #91736D",
"b. c #8C8159",
"n. c #8C805B",
"m. c #918359",
"M. c #928359",
"N. c #90835C",
"B. c #92865C",
"V. c #998A5E",
"C. c #998C5E",
"Z. c #9D905E",
"A. c #9E915F",
"S. c #B5834D",
"D. c #B8844E",
"F. c #B8864F",
"G. c #AB8753",
"H. c #A98654",
"J. c #B08450",
"K. c #9D8F60",
"L. c #988177",
"P. c #A69660",
"I. c #AA9860",
"U. c #B09C61",
"Y. c #B49C60",
"T. c #B89E60",
"R. c #AFA065",
"E. c #BAA564",
"W. c #B9A967",
"Q. c #BFA965",
"!. c #BDAD69",
"~. c #B1A575",
"^. c #BAAC74",
"/. c #C38B4F",
"(. c #CB9050",
"). c #C79857",
"_. c #CF9854",
"`. c #CC9C58",
"'. c #D4A35A",
"]. c #D4A55C",
"[. c #D7A85D",
"{. c #C5A762",
"}. c #CCAD64",
"|. c #D7AE61",
" X c #DAAF61",
".X c #C4B36B",
"XX c #C5B46B",
"oX c #C7B56C",
"OX c #CDB569",
"+X c #CBB96D",
"@X c #CDBB6E",
"#X c #D5B365",
"$X c #DDB665",
"%X c #C0B27C",
"&X c #D3C070",
"*X c #D8C471",
"=X c #DECA73",
"-X c #E6C86F",
";X c #E2C870",
":X c #E0CC74",
">X c #E2CE74",
",X c #E6D175",
"<X c #E9D477",
"1X c #ECD677",
"2X c #EED878",
"3X c #92908E",
"4X c #ABA9AD",
"5X c #B8B7BA",
"6X c #C4BDA2",
"7X c #C1BBA6",
"8X c #EDDE9E",
"9X c #E0D6AA",
"0X c #C5C4C8",
"qX c #CECDCB",
"wX c #DCD6C3",
"eX c #E6E1CC",
"rX c #EAE5D3",
/* pixels */
"M M M M M M M M M M M M M M M M M M M M M M M M M M M M M M M M M M M M M M M M M M M M M M M M M M M M M M M M M M M M M M M M ",
"5.5.5.5.5.5.5.5.5.5.5.5.5.5.5.5.5.5.5.5.5.5.5.5.5.5.5.5.5.5.5.5.M M M M 5.5.5.5.5.5.5.5.5.5.5.5.5.5.5.5.5.5.5.5.5.5.5.5.5.5.5.5.",
"v.v.v.v.v.v.v.v.v.v.v.v.v.v.v.v.v.v.v.v.v.v.v.v.v.v.v.v.v.5.5.5.5.M M 5.5.v.v.v.v.v.v.v.v.v.v.v.v.v.v.v.v.v.v.v.v.v.v.v.v.v.v.v.",
"v.v.v.v.v.v.v.v.v.v.v.v.v.v.v.v.v.v.v.v.v.v.v.v.5.v.5.5.5.5.5.5.5.M M 5.5.5.5.5.5.5.v.5.v.v.v.v.v.v.v.v.v.v.v.v.v.v.v.v.v.v.v.v.",
"L.L.L.L.L.L.L.L.v.v.v.v.v.v.v.v.v.v.v.v.v.v.v.v.v.v.v.v.v.v.5.5.5.M M 5.5.5.5.v.v.v.v.v.v.v.v.v.v.v.v.v.v.v.v.v.v.v.v.v.v.L.v.L.",
"L.L.L.L.L.L.L.L.v.v.v.v.v.v.v.v.v.v.v.v.v.v.v.v.v.v.v.5.5.5.5.5.5.M M 5.5.5.5.5.5.v.v.v.v.v.v.v.v.v.v.v.v.v.v.v.v.v.v.v.v.L.v.L.",
"v.v.v.v.v.L.v.v.v.v.v.v.v.v.v.v.v.v.v.v.v.v.v.v.v.v.v.v.v.v.v.5.5.M M M M M M M M M v.M M v.M v.v.v.v.v.v.v.v.v.v.v.v.v.v.v.v.v.",
"v.v.v.L.L.L.L.L.L.v.L.v.v.v.v.v.v.v.v.v.v.v.v.v.v.v.v.v.5.5.5.5.5.M M M 5.5.5.5.5.5.v.5.5.v.5.v.v.v.v.v.v.v.v.v.v.v.v.v.v.v.v.v.",
"v.v.v.v.v.v.v.v.v.v.v.v.v.v.v.v.v.v.v.v.v.v.v.v.v.v.v.v.M M 5.5.5.M M 5.5.5.M M v.v.v.v.v.v.v.v.v.v.v.v.v.v.v.v.v.v.v.v.v.v.v.v.",
"v.v.v.v.v.v.v.v.v.v.v.v.v.v.v.v.v.v.v.v.v.v.v.v.v.v.5.5.M M 5.5.5.M M 5.5.5.M M v.v.v.v.v.v.v.v.v.v.v.v.v.v.v.v.v.v.v.v.v.v.v.v.",
"v.v.v.v.v.v.v.v.v.v.v.v.v.v.v.v.v.v.v.v.v.v.v.v.v.v.v.v.v.v.5.5.M M M 5.5.5.5.5.5.v.5.v.v.v.v.v.v.v.v.v.v.v.v.v.v.v.v.v.v.v.v.v.",
"v.v.v.v.v.v.v.v.v.v.v.v.v.v.v.v.v.v.v.v.M v.M M v.M M M M M M M M M M 5.5.5.5.v.v.v.v.v.v.v.v.v.v.v.v.v.v.v.v.v.v.v.v.v.v.v.v.v.",
"v.v.v.v.v.v.v.v.v.v.v.v.v.v.v.v.v.v.v.v.5.v.5.5.v.5.5.5.5.5.5.5.5.M M 5.5.5.5.5.5.5.5.5.v.v.v.v.v.v.v.v.v.v.v.v.v.v.v.v.v.v.v.v.",
"v.v.v.v.v.v.v.v.v.v.v.v.v.v.v.v.v.v.v.v.v.v.v.v.v.v.v.v.5.5.5.5.5.M M 5.5.5.5.5.5.v.5.v.v.v.v.v.v.v.v.v.v.v.v.v.v.v.v.v.v.v.v.v.",
"5.5.5.5.5.5.5.5.5.5.5.5.5.5.5.5.5.5.5.5.5.5.5.5.5.5.5.5.5.5.5.5.M M M M 5.5.5.5.5.5.5.5.5.5.5.5.5.5.5.5.5.5.5.5.5.5.5.5.5.5.5.5.",
"M M M M M M M M M M M M M M M M M M M M M M M M M M M M M M M M M M M M M M M M M M M M M M M M M M M M M M M M M M M M M M M M ",
"M M M M M M M M M M M M M M M M M M M M M M M M M M M M M v l d d d d d f c M M M M M M M M M M M M M M M M M M M M M M M M M M ",
"M M 5.5.5.5.5.5.5.5.5.5.5.5.5.5.5.5.5.5.5.5.5.5.5.5.5.5.5.} q & & & & & 9 / 5.5.5.5.5.5.5.5.5.5.5.5.5.5.5.5.5.5.5.5.5.5.5.5.M M ",
"M 5.5.5.v.v.v.v.v.v.v.v.v.v.v.v.v.v.v.v.v.v.v.v.v.v.v.v.h.*.T u u u u B -.,.d.z.v.v.v.v.v.v.v.v.v.v.v.v.v.v.v.v.v.v.v.v.5.5.5.M ",
"M 5.5.5.5.5.5.v.5.v.v.v.v.v.v.v.v.v.v.L.L.L.L.L.L.L.v.v.Q i K.!.!.!.!.6X5X4.n j.v.v.v.v.v.v.v.v.v.v.v.v.v.v.v.v.v.v.5.5.5.5.5.M ",
"M 5.5.5.5.v.v.v.v.v.v.v.v.v.v.v.v.v.v.v.v.v.L.L.v.v.k.1.@.&.oX:X.X!.!.9XeX3X:.>.f.v.v.v.v.v.v.v.v.v.v.v.v.M v.M M M M M M M M M ",
"M 5.5.5.5.5.5.v.v.v.v.v.v.v.v.v.v.v.v.v.v.L.L.L.L.L.` , N.+X>X.X#.u u ~.8XwX4XN I v.v.v.v.v.v.v.v.v.v.v.v.5.v.5.5.5.5.5.5.5.5.M ",
"M 5.5.5.M M v.v.v.v.v.v.v.v.v.v.v.v.v.v.v.L.L.L.L.L.W   A.,XXXV.p 3 3 e.%XrX0Xz j v.v.v.v.v.v.v.v.v.v.v.v.v.v.v.v.v.M M 5.5.5.M ",
"M 5.5.5.M M v.v.v.v.v.v.v.v.v.v.v.v.v.v.v.v.v.v.v.v.W   A.*X8.P 3.s.s.R ;.qX0Xz j v.v.v.v.v.v.v.v.v.v.v.v.v.v.v.v.5.M M 5.5.5.M ",
"M 5.5.5.5.5.5.v.v.v.v.v.v.v.v.v.v.v.v.v.v.v.v.v.v.v.W   A.&XX.2 g.v.v.j s 7X7Xs j v.v.v.v.v.v.v.v.v.v.v.v.v.v.v.v.v.5.5.5.5.5.M ",
"M 5.5.5.v.v.v.v.v.v.v.v.v.v.v.v.v.v.v.v.v.v.v.v.v.v.W   A.&XX.2 g.v.v.j 4 ^.^.4 j v.v.v.M v.M M v.M M M M M M v.M M M M M M M M ",
"M 5.5.5.5.5.5.5.5.5.v.5.v.v.v.v.v.v.v.v.v.v.v.v.v.v.W   A.=XZ.%.~ ! ! $.b.@XW.: j v.v.v.5.v.5.5.v.5.5.5.5.5.5.v.5.5.5.5.5.5.M M ",
"M 5.5.5.5.5.5.5.v.v.v.v.v.v.v.v.v.v.v.v.v.v.v.v.v.v.W   A.1X>XR.w X X C.:X<XW.: j v.v.v.v.v.v.v.v.v.v.v.v.v.v.v.v.v.v.5.5.5.5.M ",
"M 5.5.5.5.5.5.5.5.5.5.5.5.5.v.v.v.v.v.v.v.v.v.v.v.v.2.k w.P.}.{.m.q.q.T.#XU.r.E [ v.v.v.v.v.v.v.v.v.v.v.v.5.v.5.5.5.5.5.5.5.5.M ",
"M 5.5.5.5.5.5.5.5.5.v.5.v.v.v.v.v.v.v.v.v.v.v.v.v.v.c.l.b 5 i.].;X,X,X|.F.Z e a.x.v.v.v.v.v.v.v.v.v.v.v.v.v.v.v.v.5.5.5.5.5.5.M ",
"M M 5.5.5.5.5.5.5.5.5.5.5.5.5.5.5.5.5.5.5.5.5.5.5.5.5.5.U r J 6.M.Y.$XH.H V L  .5.5.5.5.5.5.5.5.5.5.5.5.5.5.5.5.5.5.5.5.5.5.M M ",
"M M M M M M M M M M M M M M M M M M M M M M M M M M M M M g +     F (.F . a M M M M M M M M M M M M M M M M M M M M M M M M M M ",
"M M M M M M M M M M M M M M M M M M M M M M M M M M M M M g + = G H.$X+.. a M M M M M M M M M M M M M M M M M M M M M M M M M M ",
"5.5.5.5.5.5.5.5.5.5.5.5.5.5.5.5.5.5.5.5.5.5.5.5.5.5.5.5.5._ % 8 S. X2X0.o Y 5.5.5.5.5.5.5.5.5.5.5.5.5.5.5.5.5.5.5.5.5.5.5.5.5.5.",
"v.v.v.v.v.v.v.v.v.v.v.v.v.v.v.v.v.v.v.v.v.v.v.v.v.v.v.v.v.g.% 8 S. X2X0.o Y v.v.v.v.v.v.v.v.v.v.v.v.v.v.v.v.v.v.v.v.v.v.v.v.v.v.",
"v.v.v.v.v.v.v.v.v.v.v.v.v.v.v.v.v.v.v.v.v.v.v.v.v.5.l.| | ^ $ 8 S. X2X0.o Y v.v.v.v.v.v.v.v.v.v.v.v.v.v.v.v.v.v.v.v.v.v.v.v.v.v.",
"L.L.L.L.L.L.L.L.v.v.v.v.v.v.v.v.v.v.v.v.v.v.v.v.v.v.<.h h 0 O 8 S. X2X0.o Y 5.5.5.v.5.v.v.v.v.v.v.v.v.v.v.v.v.v.v.v.v.v.v.L.v.L.",
"L.L.L.L.L.L.L.L.v.v.v.v.v.v.v.v.v.v.v.v.v.v.v.v.v.v.W   @ - * A D. X2X0.o Y 5.v.v.v.v.v.v.v.v.v.v.v.v.v.v.v.v.v.v.v.v.v.v.L.v.L.",
"v.v.v.v.v.L.v.v.v.v.v.v.v.v.v.v.v.v.v.v.v.v.v.v.v.v.W   =.I.t.u./. X2X0.. a M M M M v.M M v.M v.v.v.v.v.v.v.v.v.v.v.v.v.v.v.v.v.",
"v.v.v.L.L.L.L.L.L.v.L.v.v.v.v.v.v.v.v.v.v.v.v.v.v.v.' # B.OX`.(.(. X2X0.o Y 5.5.5.5.v.5.5.v.5.v.v.v.v.v.v.v.v.v.v.v.v.v.v.v.v.v.",
"v.v.v.v.v.v.v.v.v.v.v.v.v.v.v.v.v.v.v.v.v.v.v.v.v.v.h.{ m O.J.(.(. X2X0.o Y M M v.v.v.v.v.v.v.v.v.v.v.v.v.v.v.v.v.v.v.v.v.v.v.v.",
"v.v.v.v.v.v.v.v.v.v.v.v.v.v.v.v.v.v.v.v.v.v.v.v.v.v.| ^ t D p.(.(.[.-X7.o Y M M v.v.v.v.v.v.v.v.v.v.v.v.v.v.v.v.v.v.v.v.v.v.v.v.",
"v.v.v.v.v.v.v.v.v.v.v.v.v.v.v.v.v.v.v.v.v.v.v.v.v.v.] < n.Q.).(.(._.'.o.o Y 5.5.5.5.v.v.v.v.v.v.v.v.v.v.v.v.v.v.v.v.v.v.v.v.v.v.",
"v.v.v.v.v.v.v.v.v.v.v.v.v.v.v.v.v.v.v.v.M v.M M v.M >   9.E.G.y.y.y.y.S 1 / v.5.v.v.v.v.v.v.v.v.v.v.v.v.v.v.v.v.v.v.v.v.v.v.v.v.",
"v.v.v.v.v.v.v.v.v.v.v.v.v.v.v.v.v.v.v.v.5.v.5.5.v.5.K   ; y 7 6 6 6 6 C ( ..5.5.5.5.5.5.v.v.v.v.v.v.v.v.v.v.v.v.v.v.v.v.v.v.v.v.",
"v.v.v.v.v.v.v.v.v.v.v.v.v.v.v.v.v.v.v.v.v.v.v.v.v.v.U 3 & & & & & + + U 5.5.5.5.5.5.v.v.v.v.v.v.v.v.v.v.v.v.v.v.v.v.v.v.v.v.v.v.",
"5.5.5.5.5.5.5.5.5.5.5.5.5.5.5.5.5.5.5.5.5.5.5.5.5.5. .) ) ) ) ) d d d x 5.5.5.5.5.5.5.5.5.5.5.5.5.5.5.5.5.5.5.5.5.5.5.5.5.5.5.5.",
"M M M M M M M M M M M M M M M M M M M M M M M M M M M M M M M M M M M M M M M M M M M M M M M M M M M M M M M M M M M M M M M M ",
"M M M M M M M M M M M M M M M M M M M M M M M M M M M M M M M M M M M M M M M M M M M M M M M M M M M M M M M M M M M M M M M M ",
"M M 5.5.5.5.5.5.5.5.5.5.5.5.5.5.5.5.5.5.5.5.5.5.5.5.5.5.5.5.5.5.5.5.5.5.5.5.5.5.5.5.5.5.5.5.5.5.5.5.5.5.5.5.5.5.5.5.5.5.5.5.M M ",
"M 5.5.5.v.v.v.v.v.v.v.v.v.v.v.v.v.v.v.v.v.v.v.v.v.v.v.v.v.v.v.v.v.v.v.v.v.v.v.v.v.v.v.v.v.v.v.v.v.v.v.v.v.v.v.v.v.v.v.5.5.5.5.M ",
"M 5.5.5.5.v.5.v.v.v.v.v.v.v.v.v.v.v.v.v.v.v.v.v.v.v.v.v.v.v.v.v.v.v.v.v.v.v.v.v.v.v.v.v.v.v.v.v.v.v.v.v.v.v.v.5.v.5.5.5.5.5.5.M ",
"M 5.5.v.v.v.v.v.v.v.v.v.v.v.v.v.v.v.v.L.L.L.L.L.L.v.L.v.v.v.v.v.v.v.v.v.v.v.v.v.v.v.v.v.v.v.v.v.v.v.v.v.v.v.v.v.v.v.v.v.5.5.5.M ",
"M 5.5.5.5.5.v.v.v.v.v.v.v.v.v.v.v.v.v.v.v.v.v.L.v.v.v.v.v.v.v.v.v.v.v.v.v.v.v.v.v.v.v.v.v.v.v.v.v.v.v.v.v.M v.M M M M M M M M M ",
"M 5.5.5.v.v.v.v.v.v.v.v.v.v.v.v.v.v.v.L.v.L.L.L.L.L.v.v.v.v.v.v.v.v.v.v.v.v.v.v.v.v.v.v.v.v.v.v.v.v.v.v.v.5.v.5.5.5.5.5.5.5.M M ",
"M 5.5.5.5.5.5.v.v.v.v.v.v.v.v.v.v.v.v.L.v.L.L.L.L.L.v.v.v.v.v.v.v.v.v.v.v.v.v.v.v.v.v.v.v.v.v.v.v.v.v.v.v.v.v.v.v.v.v.5.v.5.5.M ",
"M 5.5.5.M M v.v.v.v.v.v.v.v.v.v.v.v.v.v.v.v.v.v.v.v.v.v.v.v.v.v.v.v.v.v.v.v.v.v.v.v.v.v.v.v.v.v.v.v.v.v.v.v.v.v.v.v.M M 5.5.5.M ",
"M 5.5.5.M M v.v.v.v.v.v.v.v.v.v.v.v.v.v.v.v.v.v.v.v.v.v.v.v.v.v.v.v.v.v.v.v.v.v.v.v.v.v.v.v.v.v.v.v.v.v.v.v.v.v.5.5.M M 5.5.5.M ",
"M 5.5.5.5.5.5.5.v.v.v.v.v.v.v.v.v.v.v.v.v.v.v.v.v.v.v.v.v.v.v.v.v.v.v.v.v.v.v.v.v.v.v.v.v.v.v.v.v.v.v.v.v.v.v.v.v.v.v.5.5.5.5.M ",
"M 5.5.5.5.v.v.v.v.v.v.v.v.v.v.v.v.v.v.v.v.v.v.v.v.v.v.v.v.v.v.v.v.v.v.v.v.v.v.v.v.v.v.v.M v.M M v.M M M M M M v.M M M M M M M M ",
"M 5.5.5.5.5.5.5.5.v.5.v.v.v.v.v.v.v.v.v.v.v.v.v.v.v.v.v.v.v.v.v.v.v.v.v.v.v.v.v.v.v.v.v.5.v.5.5.v.5.5.5.5.5.5.v.5.5.5.5.5.5.5.M ",
"M 5.5.5.5.v.5.v.v.v.v.v.v.v.v.v.v.v.v.v.v.v.v.v.v.v.v.v.v.v.v.v.v.v.v.v.v.v.v.v.v.v.v.v.v.v.v.v.v.v.v.v.v.v.v.v.v.v.5.5.5.5.5.M ",
"M M 5.5.5.5.5.5.5.5.5.5.5.5.5.5.5.5.5.5.5.5.5.5.5.5.5.5.5.5.5.5.5.5.5.5.5.5.5.5.5.5.5.5.5.5.5.5.5.5.5.5.5.5.5.5.5.5.5.5.5.5.M M ",
"M M M M M M M M M M M M M M M M M M M M M M M M M M M M M M M M M M M M M M M M M M M M M M M M M M M M M M M M M M M M M M M M "
};
