/* XPM */
static char *result[] = {
/* columns rows colors chars-per-pixel */
"64 64 12 1 ",
"  c #323443",
". c #423943",
"X c #4C3F46",
"o c #6E4545",
"O c #7F4A45",
"+ c #885048",
"@ c #8F5C50",
"# c #A06150",
"$ c #A96753",
"% c #AD6F56",
"& c #B78360",
"* c #BB8B63",
/* pixels */
"$$$$$$+#+OOOOOO.  oOOOOO#$$$$$X   @$$$$$$&*****%&%$$$$$$$$$$$$$$",
"$$$$$$$$$$$X oOO. oOO. @$$$+OO.   oOO#+#$&*****%&%$$$$$$$$$$$$$$",
"$$$$$$$$$$+. oOO. oOO. @$$$$$+.   oO#$$$$$$$$$$$$$$$$$$$$$$$$$$$",
"$$$$$$$$$$$+OOOO. oOO#$$$$$$+O.   oOO#$$$$$$$$$$$$$$$$$$$$$$$$$$",
"X@X     @X        o#$$$$$$$$$+.    o#$$$$$$$$$$$$$$$$$$$$$$$$$$$",
"+#+OOOOO#+OOOOO.  oOOO#$$+#+OO.   oOOOOO#$$$$$$$$$$$$$$$$$$$$$$$",
"$$$$$$$$$$$$+OOO. oO#$$$$$$$X       o.@$$$$$$$$$$$$$$$$$$$$$$$$$",
"$$$$$$+#+OOOOOOO. oOOOO#$$+OO.     oOOOOOO#+#$$$$$$$$$$$$$$$$$$+",
"$$$$$$$$$$+OOOOO. oOOO#$X@X            o#$$$$$$$$$$$$$$$$$$$$$$$",
"OOOOOOOOOOOOOOO.   oOOOOOOOO.o.    o.oOOOOOOOOOOOOOOOOOOOOOOOOOO",
"                                                                ",
"                                                                ",
"OOOOOOOOOOOOOOOOOOOOOOOOOOOOOOOOOOOOOOOOOOOOOOOOO.   oOOOOOOOOOO",
"OOOOOOOOOOOOOOOOOOOOOOOOOOOOOOOOOOOOOOOOOOOOOOOOOO. oOOO#$$$$$$$",
"$$$$$$$$$$$$$$$$$$$$$$$$$$$$$$$$$$$$$$$$$$$$$$$+OO. oOOOOO#+#$$$",
"$$$$$$$$$$$$$$&%&********%$$$$$$$$$$$$$$$$+#+OOOOO. oOO#$$$$$$$$",
"$$$$$$$$$$$$$$&%&********%$$$$$$$$$$$$$$$$$$$$$+OO. oOOOO#$$$$$$",
"$$$$$$$$$$$$$$$$$$$$$$&%$$$$$$$$$$$$$$$$$$$$$$$+OO.        @X @X",
"$$$$$$$$$$$$$$$$$$$$&*****%&%$$$$$$$$$$$$$$$+OOOOO.  oOOOOO#+O#+",
"$$$$$$$$$$$$$$$$$$$$$$$$$$$$$$$$$$$$$$$$$$$$$X oOO. oOO. @$$$$$$",
"$$$$$$$$$$$$$$$$$$$$$$$$$$$$$$$$$$$$$$$$$$$+O. oOO. oOO. @$$$$$$",
"$$$$$$$$$$$$$$$$$$$$$$$$$$$$$$$$$$$$$$$$$$$$$$+OO.  oOOOOOO#$$$$",
"$$$$$$$$$$$$$$$$$$$$$$$$$$$$$$$$$$$$$X@X @X         oOO#+#$$$$$$",
"$$$$$$$$$$$$$$$$$$$$$$$$$$$$$$$$$$$$$+#+O#+OOOOOOO. oOOOOOOOO#$$",
"$$$$$$$$$$$$$$$$$$$$$$$$$$$$$$$$$$$$$$$$$$$+#+OOOO. oOOOOOO#$$$$",
"OOOOOOOOOOOOOOOOOOOOOOOOOOOOOOOOOOOOOOOOOOOOOOOOO.   oOOOOOOOOOO",
"                                                                ",
"                                                                ",
"OOOOOOOOOOOOOOO.   oOOOOOOOOOOOOOOOOOOOOOOOOOOOOOOOOOOOOOOOOOOOO",
"$$$$$$$$$$$$+OOO. oOO#$$$$$$$$$$$$$$$$$$$$$$$$$$$$$$$$$$$$$$$$$$",
"$$$$$$$$+#+OOOOO. oOOO#+#$$$$$$$$$$$$$$$$$$$$$$$$$$$$$$$$$$$$$$$",
"$$$$$$$$$$$$$+OO. oO#$$$$$$$$$$$$$$$&*****%&%$$$$$$$$$$$$$$$$$$$",
"$$$$$$X@X         oOOOO#$$$$$$$$$$$$$$$$&%$$$$$$$$$$$$$$$$$$$$$$",
"$$$$$$+#+OOOOOO.  oOO#$$$$$$$$$$$$$$&%&****%$$$$$$$$$$$$$$$$$$$$",
"$$$$$$$$$$$$+#+O. oOOOOO#$$$$$$$$$$$&%&****%$$$$$$$$$$$$$$$$$$$$",
"$$$$$$$$$$$X oOO. oOO. @$$$$$$$$$$$$$$$$$$$$$$$$$$$$$$$$$$$$$$$$",
"$$$$$$$$$+O. oOO. oOO. @$$$$$$$$$$$$$$$$$$$$$$$$$$$$$$$$$$$$$$$$",
"$$$$$$$$$$$$+OO.  oOOOOOO#$$$$$$$$$$$$$$$$$$$$$$$$$$$$$$$$$$$$$$",
"X@X     @X        oOOO#$$$$$$$$$$$$$$$$$$$$$$$$$$$$$$$$$$$$$$$$$",
"+#+OOOOO#+OOOOOO. oOOOOOOO#+#$$$$$$$$$$$$$$$$$$$$$$$$$$$$$$$$$$$",
"$$$$$$$$$$$+OOOO. oOOO#+#$$$$$$$$$$$$$$$$$$$$$$$$$$$$$$$$$$$$$$$",
"OOOOOOOOOOOOOOO.   oOOOOOOOOOOOOOOOOOOOOOOOOOOOOOOOOOOOOOOOOOOOO",
"                                                                ",
"                                                                ",
"OOOOOOOOOOOOOOOOOOOOOOOOOOOOOOOOOOOOOOOOOOOOOOOOO.   oOOOOOOOOOO",
"$$$$$$$$$$$$$$$$$$$$$$$$$$$$$$$$$$$$$$$$$$$$$$+OOO. oOOO#$$$$$$$",
"$$$$$$$$$$$$$$$$$$$$$$$$$$$$$$$$$$$$$$$$$$+#+OOOOO. oOOOOO#+#$$$",
"$$$$$$$$$$$$$$&%&********%$$$$$$$$$$$$$$$$$$$$$+OO. oOO#$$$$$$$$",
"$$$$$$$$$$$$$$&%&********%$$$$$$$$$$$$$$$$$$$+OOOO. oOOOO#$$$$$$",
"$$$$$$$$$$$$$$$$$$$$$$&%$$$$$$$$$$$$$$$$$$$$$$$$+O.        @X @X",
"$$$$$$$$$$$$$$$$$$$$&*****%&%$$$$$$$$$$$$$$$+OOOOO.  oOOOOO#+O#+",
"$$$$$$$$$$$$$$$$$$$$$$$$$$$$$$$$$$$$$$$$$$$$$X oOO. oOO. @$$$$$$",
"$$$$$$$$$$$$$$$$$$$$$$$$$$$$$$$$$$$$$$$$$$$+O. oOO. oOO. @$$$$$$",
"$$$$$$$$$$$$$$$$$$$$$$$$$$$$$$$$$$$$$$$$$$$$$$+OO.  oOOOOOO#$$$$",
"$$$$$$$$$$$$$$$$$$$$$$$$$$$$$$$$$$$$$X@X @X         oOO#+#$$$$$$",
"$$$$$$$$$$$$$$$$$$$$$$$$$$$$$$$$$$$$$+#+O#+OOOOOOO. oOOOOOOOO#$$",
"$$$$$$$$$$$$$$$$$$$$$$$$$$$$$$$$$$$$$$$$$$$+#+OOOO. oOOOOOO#$$$$",
"OOOOOOOOOOOOOOOOOOOOOOOOOOOOOOOOOOOOOOOOOOOOOOOOO.   oOOOOOOOOOO",
"                                                                ",
"                                                                ",
"                                                                ",
"                                                                ",
"                                                                ",
"                                                                "
};
