/* XPM */
static char *a7a2fac3eb6d444f8c0e8c39ad3a2bc2B0Sk9VMxvAYSMYK2[] = {
/* columns rows colors chars-per-pixel */
"64 58 6 1 ",
"  c #323443",
". c #56505B",
"X c #7F4A45",
"o c #A96753",
"O c #BB8B63",
"+ c #CB9C77",
/* pixels */
".                               ..                             .",
"                                                                ",
"  +++++++++++++++++++++++++++++    o+++++++++++++++++++++++++o  ",
" ooo+o++o+oo+            +++oooo  oooo++o+++            ++++ooo ",
" +++++++++++++++++++++++o +++++o  +++++++++ oooooooooooo +++++o ",
" oo++++++           +o++o +o+ooo  oo++++ o+ +++++++++++o ++o+oo ",
" o++++++ ooooooooooo++++o ++++oo  o+++++ o++      +o+++o +++++o ",
" ooooo++ +++++++++++++++o +ooooo  ooooo+ o+++++++++++++o ++oooo ",
" oooo++++                ++++ooo  oo+o+++               ++++ooo ",
"  ooooooooooooooooooooooooooooo    ooooooooooooooooooooooooooo  ",
"                                                                ",
"                                                                ",
"XXXXXXXXXXXXXXXXX    XXXXXXXXXXXXXXXXXXXXXXXXXXXXXXXXXXXXXXXXXXX",
"XXXXXXXXXXXXXXXXXX  XXXXXXXXXXXXXXXXXXXXXXXXXXXXXXXXXXXXXXXXXXXX",
"oooooooooooooooXXX  XXXooooooooooooooooooooooooooooooooooooooooo",
"oooooooooooXoXXXXX  XXXXXXoXooooooooooooooooooOoOOOOOOOOOooooooo",
"ooooooooooooooooXX  XXXXooooooooooooooooooooooOoOOOOOOOOOooooooo",
"oooooooooooooooXXX         o  o ooooooooooooooooooooooOooooooooo",
"ooooooooooooooooXX   XXXXXXoXXoXooooooooooooooooooooOOOOOOoOoooo",
"ooooooooooooo  XXX  XXX  ooooooooooooooooooooooooooooooooooooooo",
"oooooooooooXX  XXX  XXX  ooooooooooooooooooooooooooooooooooooooo",
"oooooooooooooooXX   XXXXXXXooooooooooooooooooooooooooooooooooooo",
"ooooo o  o          XXXoXooooooooooooooooooooooooooooooooooooooo",
"oooooXoXXoXXXXXXXX  XXXXXXXXXooooooooooooooooooooooooooooooooooo",
"oooooooooooXoXXXXX  XXXXXXXooooooooooooooooooooooooooooooooooooo",
"XXXXXXXXXXXXXXXXX    XXXXXXXXXXXXXXXXXXXXXXXXXXXXXXXXXXXXXXXXXXX",
"                                                                ",
"                                                                ",
"XXXXXXXXXXXXXXXXXXXXXXXXXXXXXXXXXXXXXXXXXXXXXXX    XXXXXXXXXXXXX",
"ooooooooooooooooooooooooooooooooooooooooooooXXXX  XXXooooooooooo",
"ooooooooooooooooooooooooooooooooooooooooXoXXXXXX  XXXXoXoooooooo",
"ooooOOOOOOoOoooooooooooooooooooooooooooooooooXXX  XXoooooooooooo",
"ooooooooOooooooooooooooooooooooooooooo o          XXXXXooooooooo",
"ooooOoOOOOOoooooooooooooooooooooooooooXoXXXXXXX   XXXooooooooooo",
"ooooOoOOOOOoooooooooooooooooooooooooooooooooXoXX  XXXXXXoooooooo",
"ooooooooooooooooooooooooooooooooooooooooooo  XXX  XXX  ooooooooo",
"oooooooooooooooooooooooooooooooooooooooooXX  XXX  XXX  ooooooooo",
"ooooooooooooooooooooooooooooooooooooooooooooXXX   XXXXXXXooooooo",
"ooooooooooooooooooooooooooooo o  o      o         XXXXoooooooooo",
"oooooooooooooooooooooooooooooXoXXoXXXXXXoXXXXXXX  XXXXXXXXoXoooo",
"oooooooooooooooooooooooooooooooooooooooooooXXXXX  XXXXoXoooooooo",
"XXXXXXXXXXXXXXXXXXXXXXXXXXXXXXXXXXXXXXXXXXXXXXX    XXXXXXXXXXXXX",
"                                                                ",
"                                                                ",
"XXXXXXXXXXXXXXXXX    XXXXXXXXXXXXXXXXXXXXXXXXXXXXXXXXXXXXXXXXXXX",
"ooooooooooooooXXXX  XXXXXooooooooooooooooooooooooooooooooooooooo",
"ooooooooooXoXXXXXX  XXXXXXoXoooooooooooooooooooooooooooooooooooo",
"oooooooooooooooXXX  XXXXooooooooooooooooooooooOoOOOOOOOOOooooooo",
"oooooooooooooXXXXX  XXXXooooooooooooooooooooooOoOOOOOOOOOooooooo",
"ooooooooooooooooXX  XXXXXXooooooooooooooooooooooooooooOooooooooo",
"ooooooooooooXXXXXX  XXXXXoooooooooooooooooooooooooooOOOOOOoOoooo",
"ooooooooooooo  XXX  XXX  XXoXXoXoooooooooooooooooooooooooooooooo",
"ooooooooooooo  XX   XXX  ooooooooooooooooooooooooooooooooooooooo",
"ooooooooooXXXXXXXX  XXXXXXXooooooooooooooooooooooooooooooooooooo",
"ooooooooooooXXX       XXXooooooooooooooooooooooooooooooooooooooo",
"oooooXoXXXXXXXXX    XXXXXXXXXXoXoooooooooooooooooooooooooooooooo",
"ooooooooooo X          XXXoooooooooooooooooooooooooooooooooooooo",
"XXXXXXXXXXXXXX X      XXXXXXXXXXXXXXXXXXXXXXXXXXXXXXXXXXXXXXXXXX"
};
