/* XPM */
static char *result[] = {
/* columns rows colors chars-per-pixel */
"64 64 17 1 ",
"  c #323443",
". c #23787E",
"X c #56505B",
"o c #BD3B53",
"O c #815C5F",
"+ c #A45B51",
"@ c #91736D",
"# c #E86363",
"$ c #36A57C",
"% c #988177",
"& c #C58D71",
"* c #F29478",
"= c #6D718E",
"- c #95A2B0",
"; c #E39B89",
": c #DEB892",
"> c #FDCAAB",
/* pixels */
"XXXXXXXXXXXXXXXXXXXXXXXXXXXXXXXXXXXXXXXXXXXXXXXXXXXXXXXXXXXXXXXX",
"OOOOOOOOOOOOOOOOOOOOOOOOOOOOOOOOXXXXOOOOOOOOOOOOOOOOOOOOOOOOOOOO",
"@@@@@@@@@@@@@@@@@@@@@@@@@@@@@OOOOXXOO@@@@@@@@@@@@@@@@@@@@@@@@@@@",
"@@@@@@@@@@@@@@@@@@@@@@@@O@OOOOOOOXXOOOOOOO@O@@@@@@@@@@@@@@@@@@@@",
"%%%%%%%%@@@@@@@@@@@@@@@@@@@@@@OOOXXOOOO@@@@@@@@@@@@@@@@@@@@@@%@%",
"%%%%%%%%@@@@@@@       @@@@@OOOOOOXXOOOOOO@@@@@@@@@@@@@@@@@@@@%@%",
"@@@@@%@@@@@@@@@  ##### @@@@@@@@OOXXXXXXXXX@XX@X@@@@@@@@@@@@@@@@@",
"@@@%%%%%%@%@@@@  ##ooo @@@@@OOOOOXXXOOOOOO@OO@O@@@@@@@@@@@@@@@@@",
"@@@@@@@@@@@@@@@  ooo       @XXOOOXXOOOXX@@@@@@@@@@@@@@@@@@@@@@@@",
"@@@@@@@@@@@@@@@@@     o###                @@@@@@@@@@@@@@@@@@@@@@",
"@@@@@@@@@@@@@@@@@     oo    ##############  @@@@@@@@@@@@@@@@@@@@",
"@@@@@@@@@@@@@@@  ##o     ooooo##*#*****#####  @@@@@@@@@@@@@@@@@@",
"@@@@@@@@@@@@@@@  ooo   ooo###########*#######  @@@@@@@@@@@@@@@@@",
"@@@@@@@@@@@@@@@        oooo#########***#*#####  @@@@@@@@@@@@@@@@",
"OOOOOOOOOOOOOOO      oooo###########***#*#####  OOOOOOOOOOOOOOOO",
"XXXXXXXXXXX   XXXXX  oooo##################o#oo  XXXXXXXXXXXXXXX",
"XXXXXXXXXXX &&  XXX  oooo#####################o  XXXXXXXXXXXXXXX",
"XXOOOOOOOOO &&  OOO  ooooooooo#o###########oooo  OOOOOOOOOOOOOXX",
"XOOO@@@@@@@@  ++  @  ooooo#o#################oo  @@@@@@@@@@@OOOX",
"XOOOOOO@O@@@  ++  @  oooooooooooooooooooooooooo  @@@@@@@@@OOOOOX",
"XOOOO@@@@@@@      @  oooooooooooooooooooooooooo  @@@@X@XXXXXXXXX",
"XOOOOOO@@@  --=-==     o                         @@@@O@OOOOOOOOX",
"XOOOXX@@@@  --=-==   oooo                        @@@@@@@@@XXOOOX",
"XOOOXX@@@@                 ;;;;;;;;;;;;;;;;;;;   @@@@@@@@OXXOOOX",
"XOOOOOO@             o   ;;;>>>>>>>>>>>>>>>>>>>  @@@@@@@@@OOOOOX",
"XOOO@@      =====      ;;;;;;>>     >>;>;>    >  XXXXXX@XXXXXXXX",
"XOOOOO   ==========    ;>>>>>>>>  >>>>>>>>>  >>  OOOOOO@OOOOOOXX",
"XOOO      ==== =     ;;;>>>>>>>;;;>>>>>>  >;;;>  @@@@@@@@@@OOOOX",
"XOOO   ==========    ; ;>>>>>>>>>>>>>>>>  >>>>>  @@@@O@OOOOOOOOX",
"XO                   ; ;;;>;>>>>>>>>>>>>>>>>>>>  @@@@@@@@OOOOOOX",
"XX  ++++++++++++++++ ;;;;>>>>>>>>>>>>>>;;;>>>>>  OOOOOOOOOOOOOXX",
"XX  ++++++++++++++++    ;;;;;;>>>>>>>>>>>>>>>;;  XXXXXXXXXXXXXXX",
"XX  ++&&&&&&&&&+&++++  ;;;;;>>>>>>>>>>>>>>>>>>;  XXXXXXXXXXXXXXX",
"OO  +++&&&&&&++++++       ;;;;;;;;;;;;;;;;;;;;  OOOOOOOOOOOOOOOO",
"@@  &&&&&&&&&&&&+++          ;;;;;;;;;;;;;;;   @@@@@@@@@@@@@@@@@",
"@@  +&&&&&&&&&&++  ....                          @@@@@@@@@@@@@@@",
"%%  &&:::&:&&&&&&  $$..  ++                ++    @@@@@@@@@@@@%@%",
"%%  &&:::&:&&&&  $$$...      ....      ..      ..  @@@@@@@@@@%@%",
"@@  &&&:&&&&&&&  $$$$$.  ++  $$$$      $.  ++  $$  @@@@@@@@@@@@@",
"@@  &&::::&:&&&  $$$$$.  &&  $$$$$$  $$$.  &&  .$  @@@@@@@@@@@@@",
"@@  &&&&&&&&&&&  $$$$$.  &&  $$$$ $  $ $.  &&  .$  @@@@@@@@@@@@@",
"@@  &:&:::&&&&&  $$$     &&  .$$$ $  $ ..  &&  .$  @@@@@@@@@@@@@",
"@@  &&&&&&&&&&&  $$$$    ++  $$$$$$  $$$.  ++  .$  @@@@@@@@@@@@@",
"@@  &&&&&&&&&&&          &&  ..$$$$$.$...  &&      @@@@@@@@@@@@@",
"@@  +&&&&&&+&++          ++  .$$$$$$$$$..  ++      @@@@@@@@@@@@@",
"@@  &&&&&&&&&&&  ;;;;    ++  ............  ++  ;;  @@@@@@@@@@@@@",
"OO  +++&&&&&+++  >>>>                  .       >>  OOOOOOOOOOOOO",
"XXXX  &&&&&&&&+++        ++  ..    . ....  ++    XXXXXXXXXXXXXXX",
"XXXX  +++++++++++                                XXXXXXXXXXXXXXX",
"XXOOOO                                         OOOOOOOOOOOOOOOXX",
"XOOO@@                                         @@@@@@@@@@@@OOOOX",
"XOOOO@O@@@@@@@@@@@@                            @@@@@@@@O@OOOOOOX",
"XOO@@@@@@@@@@@@@@@@        @@@@@@@@@@@@        @@@@@@@@@@@@@OOOX",
"XOOOOO@@@@@@@@@@@@@        @@@@@@@@@@@@        @@@@@@X@XXXXXXXXX",
"XOOO@@@@@@@@@@@@@@@        @@@@@@@@@@@@        @@@@@@O@OOOOOOOXX",
"XOOOOOO@@@@@@@@@@@@      %@@@@@@@@@@@@@      @@@@@@@@@@@@@@O@OOX",
"XOOOXX@@@@@@@@@@@@@      @@@@@@@@@@@@@@      @@@@@@@@@@@@@XXOOOX",
"XOOOXX@@@@@@@@@@@@@    @@@@@@@@@@@@@@@@    @@@@@@@@@@@@@OOXXOOOX",
"XOOOOOOO@@@@@@@@@@@@@@@@@@@@@@@@@@@@@@@@@@@@@@@@@@@@@@@@@@@OOOOX",
"XOOOO@@@@@@@@@@@@@@@@@@@@@@@@@@@@@@@@@@@@@@@X@XX@XXXXXX@XXXXXXXX",
"XOOOOOOOO@O@@@@@@@@@@@@@@@@@@@@@@@@@@@@@@@@@O@OO@OOOOOO@OOOOOOOX",
"XOOOO@O@@@@@@@@@@@@@@@@@@@@@@@@@@@@@@@@@@@@@@@@@@@@@@@@@@@OOOOOX",
"XXOOOOOOOOOOOOOOOOOOOOOOOOOOOOOOOOOOOOOOOOOOOOOOOOOOOOOOOOOOOOXX",
"XXXXXXXXXXXXXXXXXXXXXXXXXXXXXXXXXXXXXXXXXXXXXXXXXXXXXXXXXXXXXXXX"
};
