/* XPM */
static char *result[] = {
/* columns rows colors chars-per-pixel */
"64 64 17 1 ",
"  c #323443",
". c #23787E",
"X c #56505B",
"o c #BD3B53",
"O c #815C5F",
"+ c #A45B51",
"@ c #91736D",
"# c #E86363",
"$ c #36A57C",
"% c #988177",
"& c #C58D71",
"* c #F29478",
"= c #6D718E",
"- c #95A2B0",
"; c #E39B89",
": c #DEB892",
"> c #FDCAAB",
/* pixels */
"XXXXXXXXXXXXXXXXXXXXXXXXXXXXXXXXXXXXXXXXXXXXXXXXXXXXXXXXXXXXXXXX",
"OOOOOOOOOOOOOOOOOOOOOOOOOOOOOOOOXXXXOOOOOOOOOOOOOOOOOOOOOOOOOOOO",
"@@@@@@@@@@@@@@@@@@@@@@@@@@@@@OOOOXXOO@@@@@@@@@@@@@@@@@@@@@@@@@@@",
"@@@@@@@@@@@@@@@@@@@@@@@@O@OOOOOOOXXOOOOOOO@O@@@@@@@@@@@@@@@@@@@@",
"%%%%%%%%@@@@@@@@@@@@@@@@@@@@@@OOOXXOOOO@@@@@@@@@@@@@@@@@@@@@@%@%",
"%%%%%%%%@@@@@@@@@@@@@@@@@@@OOOOOOXXO       @@@@@@@@@@@@@@@@@@%@%",
"@@@@@%@@@@@@@@@@@@@@@@@@@@@@@@@OOXX #####  XX@X@@@@@@@@@@@@@@@@@",
"@@@%%%%%%@%@@@@@@@@@@@@@@@@@OOOOOXX ooo##  OO@O@@@@@@@@@@@@@@@@@",
"@@@@@@@@@@@@@@@@@@@@@@@@@@@@XXO       ooo  @@@@@@@@@@@@@@@@@@@@@",
"@@@@@@@@@@@@@@@@                ###o     @@@@@@@@@@@@@@@@@@@@@@@",
"@@@@@@@@@@@@@@  ##############    oo     @O@@@@@@@@@@@@@@@@@@@@@",
"@@@@@@@@@@@@  #####*****#*##ooooo     o##  @@@@@@@@@@@@@@@@@@@@@",
"@@@@@@@@@@@  #######*###########ooo   ooo  O@@@@@@@@@@@@@@@@@@@@",
"@@@@@@@@@@  #####*#***#########oooo        @@@@@@@@@@@@@@@@@@@@@",
"OOOOOOOOOO  #####*#***###########oooo      OOOOOOOOOOOOOOOOOOOOO",
"XXXXXXXXX  oo#o##################oooo  XXXXX   XXXXXXXXXXXXXXXXX",
"XXXXXXXXX  o#####################oooo  XXX  && XXXXXXXXXXXXXXXXX",
"XXOOOOOOO  oooo###########o#ooooooooo  OOO  && OOOOOOOOOOOOOOOXX",
"XOOO@@@@@  oo#################o#ooooo  @  ++  @@@@@@@@@@@@@@OOOX",
"XOOOOOO@O  oooooooooooooooooooooooooo  @  ++  @@@@@@@@@@@@OOOOOX",
"XOOOO@@@@  oooooooooooooooooooooooooo  @      @@@@@@@X@XXXXXXXXX",
"XOOOOOO@@                         o     ==-=--  @@@@@O@OOOOOOOOX",
"XOOOXX@@@                        oooo   ==-=--  @@@@@@@@@@XXOOOX",
"XOOOXX@@@   ;;;;;;;;;;;;;;;;;;;                 @@@@@@@@@OXXOOOX",
"XOOOOOO@@  >>>>>>>>>>>>>>>>>>>;;;   o             @@@@@@@@OOOOOX",
"XOOO@@@@@  >    >;>;>>     >>;;;;;;      =====      XXX@XXXXXXXX",
"XOOOOOOOO  >>  >>>>>>>>>  >>>>>>>>;    ==========   OOO@OOOOOOXX",
"XOOOOOOO@  >;;;>  >>>>>>;;;>>>>>>>;;;     = ====      @@@@@OOOOX",
"XOOOOOOOO  >>>>>  >>>>>>>>>>>>>>>>; ;    ==========   @OOOOOOOOX",
"XOOOOOOOO  >>>>>>>>>>>>>>>>>>>;>;;; ;                   @OOOOOOX",
"XXOOOOOOO  >>>>>;;;>>>>>>>>>>>>>>;;;; ++++++++++++++++  OOOOOOXX",
"XXXXXXXXX  ;;>>>>>>>>>>>>>>>;;;;;;    ++++++++++++++++  XXXXXXXX",
"XXXXXXXXX  ;>>>>>>>>>>>>>>>>>>;;;;;  ++++&+&&&&&&&&&++  XXXXXXXX",
"OOOOOOOOOO  ;;;;;;;;;;;;;;;;;;;;       ++++++&&&&&&+++  OOOOOOOO",
"@@@@@@@@@@@   ;;;;;;;;;;;;;;;          +++&&&&&&&&&&&&  @@@@@@@@",
"@@@@@@@@@                          ....  ++&&&&&&&&&&+  @@@@@@@@",
"%%%%%%%%@    ++                ++  ..$$  &&&&&&:&:::&&  @@@@@%@%",
"%%%%%%%  ..      ..      ....      ...$$$  &&&&:&:::&&  @@@@@%@%",
"@@@@@%@  $$  ++  .$      $$$$  ++  .$$$$$  &&&&&&&:&&&  @@@@@@@@",
"@@@%%%%  $.  &&  .$$$  $$$$$$  &&  .$$$$$  &&&:&::::&&  @@@@@@@@",
"@@@@@@@  $.  &&  .$ $  $ $$$$  &&  .$$$$$  &&&&&&&&&&&  @@@@@@@@",
"@@@@@@@  $.  &&  .. $  $ $$$.  &&     $$$  &&&&&:::&:&  @@@@@@@@",
"@@@@@@@  $.  ++  .$$$  $$$$$$  ++    $$$$  &&&&&&&&&&&  @@@@@@@@",
"@@@@@@@      &&  ...$.$$$$$..  &&          &&&&&&&&&&&  @@@@@@@@",
"@@@@@@@      ++  ..$$$$$$$$$.  ++          ++&+&&&&&&+  @@@@@@@@",
"@@@@@@@  ;;  ++  ............  ++    ;;;;  &&&&&&&&&&&  @@@@@@@@",
"OOOOOOO  >>       .                  >>>>  +++&&&&&+++  OOOOOOOO",
"XXXXXXXXX    ++  .... .    ..  ++        +++&&&&&&&&  XXXXXXXXXX",
"XXXXXXXXX                                +++++++++++  XXXXXXXXXX",
"XXOOOOOOOOO                                         OOOOOOOOOOXX",
"XOOO@@@@@@@                                         @@@@@@@OOOOX",
"XOOOO@O@@@@                            @@@@@@@@@@@@@@@@O@OOOOOOX",
"XOO@@@@@@@@        %%%%%%@%@@@@        @@@@@@@@@@@@@@@@@@@@@OOOX",
"XOOOOO@@@@@        @@@@%@@@@@@@        @@@@@@@@@@@@@@X@XXXXXXXXX",
"XOOO@@@@@@@        %@%%%%%@@@@@        @@@@@@@@@@@@@@O@OOOOOOOXX",
"XOOOOOO@@@@@@      %@%%%%%@@@@@@@      @@@@@@@@@@@@@@@@@@@@O@OOX",
"XOOOXX@@@@@@@      @@@@@@@@@@@@@@      @@@@@@@@@@@@@@@@@@@XXOOOX",
"XOOOXX@@@@@@@@@    @@@@@@@@@@@@@@@@    @@@@@@@@@@@@@@@@@OOXXOOOX",
"XOOOOOOO@@@@@@@@@@@@@@@@@@@@@@@@@@@@@@@@@@@@@@@@@@@@@@@@@@@OOOOX",
"XOOOO@@@@@@@@@@@@@@@@@@@@@@@@@@@@@@@@@@@@@@@X@XX@XXXXXX@XXXXXXXX",
"XOOOOOOOO@O@@@@@@@@@@@@@@@@@@@@@@@@@@@@@@@@@O@OO@OOOOOO@OOOOOOOX",
"XOOOO@O@@@@@@@@@@@@@@@@@@@@@@@@@@@@@@@@@@@@@@@@@@@@@@@@@@@OOOOOX",
"XXOOOOOOOOOOOOOOOOOOOOOOOOOOOOOOOOOOOOOOOOOOOOOOOOOOOOOOOOOOOOXX",
"XXXXXXXXXXXXXXXXXXXXXXXXXXXXXXXXXXXXXXXXXXXXXXXXXXXXXXXXXXXXXXXX"
};
